<svg width="95" height="42" viewBox="0 0 95 42" fill="none" xmlns="http://www.w3.org/2000/svg">
  <g clip-path="url(#clip0_3107_472)">
    <path
      d="M41.621 22.9301C41.543 21.0694 40.1777 19.538 37.9734 17.813C36.1202 16.3205 30.9312 12.095 30.9312 12.095C32.3748 10.9514 32.7063 10.5637 33.8181 9.69148C37.1929 7.01663 36.7443 4.45808 36.4128 3.48893C35.7688 1.68631 33.8961 0.465179 31.7504 0.465179H22.8356H19.3243H7.75653C4.34279 0.465179 1.4557 2.3841 0.402313 5.34971C-0.729109 8.5673 0.558368 12.0756 3.85509 14.7117C5.31815 15.8747 7.95161 17.9681 10.6826 20.139C9.70726 20.4103 8.71239 20.9143 7.79554 21.7865C6.50808 23.0077 5.84482 24.6745 5.92286 26.4966C6.02039 28.7838 7.26886 31.0128 9.45367 32.7379L21.08 41.9836L38.9876 27.7177C40.8018 26.2446 41.699 24.6358 41.621 22.9301ZM22.8356 3.95411H31.7504C32.3943 3.95411 32.9599 4.24487 33.0965 4.63253C33.2524 5.03957 32.9404 5.91182 31.6333 6.95849C29.234 8.85802 25.4496 11.8818 22.8356 13.9557V3.95411ZM6.0399 11.9594C3.95264 10.2924 3.0748 8.23778 3.69903 6.47392C4.24523 4.92328 5.82532 3.93473 7.73703 3.93473H19.3049V22.4842C15.4619 19.4411 8.7514 14.1108 6.0399 11.9594ZM11.6579 29.9661C10.2925 28.8807 9.49268 27.5432 9.43417 26.3028C9.39516 25.508 9.66824 24.7909 10.234 24.2676C12.2432 22.4067 14.2914 22.9301 16.3982 24.6164C17.1201 25.1785 18.5636 26.3221 19.3243 26.9423V36.0719L11.6579 29.9661ZM36.6078 25.1204L22.8162 36.0719V18.4138C23.3233 18.0068 24.7669 16.9988 25.6837 16.2624C27.2053 15.0412 28.9804 14.9443 30.463 16.1267C32.6869 17.8905 34.306 19.3636 36.0226 20.7592C37.232 21.7478 37.9149 22.5618 37.9344 23.2208C37.9734 23.9381 37.1344 24.7134 36.6078 25.1204Z"
      fill="white" />
    <path
      d="M49.7171 1.79617C51.9022 1.79617 53.3845 2.57149 53.3845 4.25781C53.3845 5.11069 52.6628 5.98291 52.1363 6.44811C53.365 7.01023 54.0284 7.9212 54.0284 9.04543C54.0284 10.945 52.8579 12.3405 50.127 12.3405H47.1228V3.48249L46.9082 1.87371L49.7171 1.79617ZM49.171 6.00228C50.4001 6.00228 50.7707 6.07984 50.9657 6.09922C51.2192 5.73093 51.4729 5.14944 51.4729 4.58734C51.4729 3.63757 50.9657 3.30805 49.8146 3.30805C49.6196 3.30805 49.405 3.32744 49.171 3.34682V6.00228ZM49.171 10.8287H50.1466C51.2972 10.8287 51.9412 10.189 51.9412 9.12295C51.9412 8.17318 51.3363 7.51417 49.7562 7.51417H49.171V10.8287Z"
      fill="white" />
    <path
      d="M60.7771 6.50635C60.7771 6.50635 60.3285 6.07993 59.7237 6.07993C58.9045 6.07993 57.9292 7.08784 57.9292 8.30896V11.0032L58.1047 12.36H55.9785V6.06055L55.7637 4.47112L57.9488 4.23853V5.67289C57.9488 5.67289 58.729 4.21915 60.0945 4.21915C60.5821 4.21915 61.0307 4.41298 61.4013 4.80064L60.7771 6.50635Z"
      fill="white" />
    <path
      d="M64.5617 11.0032L64.7372 12.36H62.611V6.02173L62.3965 4.43231L64.5813 4.19971V11.0032H64.5617ZM63.567 1.0209C64.1327 1.0209 64.6203 1.50547 64.6203 2.12573C64.6203 2.70722 64.1327 3.17241 63.567 3.17241C62.9624 3.17241 62.455 2.70722 62.455 2.12573C62.455 1.50547 62.9624 1.0209 63.567 1.0209Z"
      fill="white" />
    <path
      d="M72.3258 6.6613C71.7407 5.94412 70.9602 5.69215 70.3945 5.69215C69.0289 5.69215 68.4438 6.97144 68.4438 8.38638C68.4438 9.70443 69.0485 10.9643 70.3361 10.9643C71.7016 10.9643 72.9304 9.70443 72.9304 9.70443L73.223 11.3327C73.223 11.3327 72.0332 12.5537 69.9655 12.5537C67.6052 12.5537 66.4541 10.5379 66.4541 8.52208C66.4541 6.23487 67.8197 4.19965 70.3751 4.19965C72.3063 4.19965 73.262 5.24634 73.262 5.24634L72.3258 6.6613Z"
      fill="white" />
    <path
      d="M76.7932 8.01817L78.9584 5.28514L79.329 4.4323H81.9627L78.7634 8.01817L82.1188 12.3406H79.6802L76.7932 8.36704V10.9837L76.9687 12.3406H74.8424V2.24202L74.6279 0.652606L76.8127 0.420013V8.01817H76.7932Z"
      fill="white" />
    <path
      d="M61.8508 15.4099V19.7517C61.8508 19.7517 62.6118 19.1702 63.587 19.1702C65.2647 19.1702 66.9228 20.5077 66.9228 23.1825C66.9228 25.5278 65.2256 27.5243 62.7483 27.5243C61.4217 27.5243 60.2317 26.8846 59.8805 26.1675V17.2319L59.666 15.6425L61.8508 15.4099ZM61.8508 25.6635C62.1433 25.9349 62.5532 26.1093 63.0213 26.1093C64.016 26.1093 64.8355 24.8882 64.8355 23.3182C64.8355 21.7481 64.016 20.6627 63.0213 20.6627C62.3774 20.6627 61.8508 21.031 61.8508 21.031V25.6635Z"
      fill="white" />
    <path
      d="M73.5546 21.4763C73.5546 21.4763 73.106 21.0499 72.501 21.0499C71.6818 21.0499 70.7064 22.0578 70.7064 23.2789V25.9732L70.8819 27.33H68.7556V21.0111L68.541 19.4218L70.7258 19.1891V20.6235C70.7258 20.6235 71.5063 19.1698 72.8716 19.1698C73.3595 19.1698 73.8081 19.3636 74.1787 19.7512L73.5546 21.4763Z"
      fill="white" />
    <path
      d="M77.3586 25.9732L77.5341 27.33H75.4079V20.9918L75.1934 19.4024L77.378 19.1698V25.9732H77.3586ZM76.3443 15.991C76.91 15.991 77.3976 16.4756 77.3976 17.0958C77.3976 17.6773 76.91 18.1425 76.3443 18.1425C75.7395 18.1425 75.2324 17.6773 75.2324 17.0958C75.2518 16.4756 75.7589 15.991 76.3443 15.991Z"
      fill="white" />
    <path
      d="M85.1021 21.6314C84.517 20.9142 83.7365 20.6622 83.1709 20.6622C81.8053 20.6622 81.2202 21.9415 81.2202 23.3565C81.2202 24.6745 81.8248 25.9344 83.1124 25.9344C84.478 25.9344 85.7067 24.6745 85.7067 24.6745L85.9992 26.3027C85.9992 26.3027 84.8096 27.5239 82.7418 27.5239C80.3811 27.5239 79.2305 25.508 79.2305 23.4922C79.2305 21.205 80.5961 19.1698 83.1514 19.1698C85.0826 19.1698 86.0383 20.2164 86.0383 20.2164L85.1021 21.6314Z"
      fill="white" />
    <path
      d="M89.59 22.9689L91.7553 20.2358L92.1259 19.383H94.7593L91.5603 22.9689L94.9153 27.2913H92.4769L89.59 23.3178V25.9345L89.7656 27.2913H87.6393V17.1927L87.4248 15.6033L89.6096 15.3708V22.9689H89.59Z"
      fill="white" />
    <path
      d="M47.8052 19.6156H49.3659L49.034 20.5847H47.7858V23.3565C47.7858 23.7249 47.9807 23.8411 48.2344 23.8411C48.6244 23.8411 49.2095 23.5504 49.4439 23.3565L49.5804 24.5002C49.5804 24.5002 48.995 25.0428 47.8442 25.0428C46.9467 25.0428 46.4981 24.5777 46.4981 23.3565V20.6042H45.8545V19.635H46.4981V18.6853L47.9028 18.5302L47.8052 19.6156Z"
      fill="#FFBD27" />
    <path
      d="M52.3699 25.0235C50.7707 25.0235 49.9316 23.6279 49.9316 22.3099C49.9316 20.7593 50.9267 19.4412 52.7214 19.4412C54.1061 19.4412 55.1402 20.2747 55.1402 22.1161C55.1402 23.686 54.1257 25.0235 52.3699 25.0235ZM52.5263 24.0931C53.287 24.0931 53.7356 23.279 53.7356 22.2323C53.7356 21.1857 53.287 20.3909 52.5263 20.3909C51.7654 20.3909 51.3168 21.205 51.3168 22.2323C51.3168 23.279 51.7848 24.0931 52.5263 24.0931Z"
      fill="#FFBD27" />
    <path d="M55.1391 26.3027L54.8855 27.2719H46.1465V26.3027H55.1391Z" fill="#FFBD27" />
    <path
      d="M22.835 3.95416H31.7498C32.3935 3.95416 32.9591 4.24489 33.0959 4.63255C33.252 5.03959 32.9396 5.91184 31.6328 6.95851C29.2334 8.85805 25.4489 11.8818 22.835 13.9558V3.95416Z"
      fill="#FFBD27" />
    <path
      d="M6.04009 11.9594C3.95281 10.2924 3.075 8.23783 3.69923 6.47399C4.24543 4.92335 5.82552 3.93478 7.73722 3.93478H19.3051V22.4844C15.4621 19.4412 8.7516 14.1108 6.04009 11.9594Z"
      fill="#9ECB45" />
    <path
      d="M11.6582 29.9662C10.2926 28.8807 9.49285 27.5432 9.43432 26.3027C9.39532 25.508 9.66841 24.7908 10.2341 24.2675C12.2433 22.4067 14.2917 22.9301 16.3984 24.6164C17.1202 25.1785 18.5637 26.3222 19.3244 26.9424V36.0718L11.6582 29.9662Z"
      fill="#FFBD27" />
    <path
      d="M36.6081 25.1204L22.8164 36.0718V18.4139C23.3235 18.0069 24.7671 16.9989 25.6839 16.2624C27.2055 15.0413 28.9806 14.9443 30.4632 16.1266C32.6872 17.8905 34.306 19.3637 36.0227 20.7592C37.2323 21.7478 37.915 22.5619 37.9344 23.2209C37.9734 23.938 37.1348 24.7133 36.6081 25.1204Z"
      fill="#458AFB" />
    <path
      d="M49.7839 34.3941L49.804 35.4149H46.0918L46.1168 34.4396L46.0918 32.1705H46.6135L46.5882 34.3941L46.5983 34.9855H47.697L47.7122 34.4396L47.6869 32.1705H48.2138L48.1888 34.3941L48.1989 34.9855H49.3024L49.3124 34.4396L49.2923 32.1705H49.814L49.7839 34.3941ZM51.2866 34.3941L51.3064 35.4149H50.7899L50.8149 34.4396L50.7899 32.1705H51.3116L51.2866 34.3941ZM51.8635 33.6967C52.2515 34.2224 52.6946 34.7582 53.1928 35.3037L53.1876 35.3643C53.0407 35.405 52.8749 35.437 52.6912 35.4606L52.626 35.43C52.1177 34.8035 51.6861 34.234 51.3317 33.7219V33.6864L52.335 32.4637L52.5355 32.1705H53.1027L51.8635 33.6967ZM54.8946 32.13C55.3396 32.13 55.6824 32.2681 55.9231 32.5445C56.1639 32.8207 56.2843 33.215 56.2843 33.7271C56.2843 34.2797 56.1557 34.7075 55.8981 35.0107C55.6406 35.3105 55.2744 35.4606 54.7995 35.4606C54.358 35.4606 54.0168 35.319 53.7761 35.0361C53.5385 34.7497 53.4199 34.3454 53.4199 33.823C53.4199 33.2807 53.5469 32.8628 53.8012 32.5696C54.0587 32.2766 54.4232 32.13 54.8946 32.13ZM54.8546 32.5545C54.5502 32.5545 54.3229 32.6539 54.1723 32.8528C54.0251 33.0481 53.9516 33.3513 53.9516 33.7624C53.9516 34.2106 54.0236 34.5389 54.1674 34.7479C54.3143 34.9535 54.5401 35.056 54.8446 35.056C55.1521 35.056 55.3797 34.9567 55.5269 34.7582C55.6738 34.5592 55.7476 34.2494 55.7476 33.8282C55.7476 33.3866 55.6738 33.0651 55.5269 32.8628C55.3831 32.6572 55.1589 32.5545 54.8546 32.5545ZM58.9996 34.3941L59.0145 35.4149H58.498L58.523 34.4396L58.5029 32.5696H57.7605L57.7355 32.8274C57.6751 33.4879 57.6051 33.9998 57.5246 34.3639C57.4478 34.7278 57.349 34.9937 57.2287 35.1624C57.1117 35.3307 56.9577 35.4352 56.7673 35.4757L56.6216 35.4858L56.5263 35.0663C56.6869 35.0125 56.8124 34.9113 56.9026 34.763C56.9962 34.6148 57.0714 34.3856 57.1284 34.0759C57.1884 33.7658 57.2436 33.3194 57.2939 32.7366L57.349 32.1806L57.3442 32.1705H59.0246L58.9996 34.3941ZM62.393 35.4149H61.8613L61.7859 35.0512L61.6455 34.6013L60.9632 34.5861L60.346 34.6013L60.1958 35.0258L60.1153 35.4149H59.5987L60.7474 32.1705H61.3545L62.393 35.4149ZM61.5151 34.1767L61.0536 32.6808H61.0183L60.4916 34.1767L60.9981 34.1871L61.5151 34.1767ZM66.1802 35.4149H65.6484L65.5731 35.0512L65.4326 34.6013L64.7503 34.5861L64.1331 34.6013L63.9829 35.0258L63.9024 35.4149H63.3859L64.5345 32.1705H65.1416L66.1802 35.4149ZM65.3022 34.1767L64.8408 32.6808H64.8054L64.2789 34.1767L64.7853 34.1871L65.3022 34.1767ZM67.8639 32.1654C68.1885 32.1654 68.4375 32.2496 68.6114 32.418C68.7889 32.5833 68.8775 32.8226 68.8775 33.1357C68.8775 33.4996 68.7654 33.7876 68.5414 33.9998C68.3204 34.2122 68.0163 34.3184 67.6284 34.3184H67.2721V34.3941L67.2971 35.4149H66.7705L66.8055 34.4396L66.7705 32.1705L67.8639 32.1654ZM67.7786 33.9139C67.9627 33.8769 68.1014 33.7979 68.1952 33.6764C68.2921 33.5517 68.3406 33.3866 68.3406 33.1811C68.3406 32.9791 68.2887 32.8292 68.1852 32.7313C68.0849 32.6336 67.931 32.5815 67.7235 32.5749L67.2971 32.59L67.277 33.9039L67.7786 33.9139ZM70.8685 33.7219L71.9473 35.4149H71.3202L71.1744 35.1269L70.5175 34.1313L69.8302 35.1573L69.6946 35.4149H69.153L70.2163 33.7928L69.1781 32.1705H69.8001L69.9454 32.4534L70.5576 33.3934L71.1796 32.4434L71.315 32.1705H71.8669L70.8685 33.7219ZM72.5763 34.4396L72.5514 32.1858L73.0731 32.1602L73.0429 34.6064H73.0831L74.5932 32.1705H75.1399L75.1149 34.3941L75.1347 35.4149H74.613L74.6383 34.4396V32.9791H74.598L73.088 35.4149H72.5514L72.5763 34.4396ZM77.9302 32.216L77.9003 32.6103L77.3183 32.5797H77.0473L77.0224 34.3941L77.0473 35.4149H76.5256L76.5558 34.4396L76.5308 32.5797H76.2598L75.6678 32.6103L75.6327 32.5645L75.6729 32.1705H77.9003L77.9302 32.216ZM80.3759 34.9704L80.406 35.0158L80.3709 35.4149H78.4697L78.5047 34.4396L78.4697 32.1705H80.3811L80.4112 32.216L80.3709 32.6151L79.6085 32.5948L78.9966 32.6L78.9813 33.5451L79.5634 33.5554L80.0951 33.5399L80.1302 33.5805L80.09 33.9796L79.5231 33.9645L78.9765 33.9748L78.9713 34.3941L78.9865 34.9904L79.5985 34.9956L80.3759 34.9704ZM81.651 34.3941L81.671 35.4149H81.1545L81.1795 34.4396L81.1545 32.1705H81.6762L81.651 34.3941ZM82.2278 33.6967C82.6158 34.2224 83.0593 34.7582 83.5575 35.3037L83.5523 35.3643C83.4051 35.405 83.2396 35.437 83.0559 35.4606L82.9907 35.43C82.482 34.8035 82.0508 34.234 81.6964 33.7219V33.6864L82.6996 32.4637L82.9001 32.1705H83.4669L82.2278 33.6967ZM85.9159 32.216L85.8861 32.6103L85.304 32.5797H85.0331L85.0081 34.3941L85.0331 35.4149H84.5113L84.5415 34.4396L84.5165 32.5797H84.2457L83.6535 32.6103L83.6185 32.5645L83.6586 32.1705H85.8861L85.9159 32.216ZM88.7237 32.1755L87.7905 34.4144C87.6634 34.6973 87.5464 34.908 87.4394 35.0461C87.3359 35.1841 87.2121 35.2835 87.0682 35.3444C86.9277 35.4016 86.7339 35.4386 86.4861 35.4555L86.441 35.4503C86.4045 35.3325 86.3743 35.1978 86.3509 35.0461L86.3758 34.9956C86.6333 34.9652 86.8223 34.9265 86.9426 34.8792C87.0633 34.8287 87.1618 34.7479 87.2389 34.6367L86.0147 32.1755L86.5715 32.1705L86.687 32.4888L87.4346 34.0807H87.4897L88.1166 32.4637L88.212 32.1755H88.7237ZM90.3706 32.1654C90.6948 32.1654 90.9441 32.2496 91.1178 32.418C91.2951 32.5833 91.3839 32.8226 91.3839 33.1357C91.3839 33.4996 91.2716 33.7876 91.0477 33.9998C90.8271 34.2122 90.5226 34.3184 90.1346 34.3184H89.7784V34.3941L89.8037 35.4149H89.2767L89.3118 34.4396L89.2767 32.1705L90.3706 32.1654ZM90.2852 33.9139C90.469 33.8769 90.6079 33.7979 90.7015 33.6764C90.7984 33.5517 90.8472 33.3866 90.8472 33.1811C90.8472 32.9791 90.7951 32.8292 90.6914 32.7313C90.5912 32.6336 90.4372 32.5815 90.23 32.5749L89.8037 32.59L89.7836 33.9039L90.2852 33.9139ZM93.0536 33.4742C93.3446 33.4742 93.5668 33.5502 93.7207 33.7019C93.878 33.85 93.9566 34.0656 93.9566 34.3488C93.9566 34.6854 93.8477 34.9483 93.6305 35.1369C93.4132 35.3222 93.1069 35.4149 92.7123 35.4149H91.9248L91.9497 34.4447L91.9248 32.1705H92.4465L92.4316 33.4742H93.0536ZM94.8845 34.3941L94.9099 35.4149H94.3829L94.4179 34.4396L94.3829 32.1705H94.9147L94.8845 34.3941ZM92.8829 35.0461C93.0569 35.0192 93.1907 34.9516 93.2843 34.8438C93.3778 34.736 93.4247 34.5928 93.4247 34.4144C93.4247 34.2324 93.3778 34.0926 93.2843 33.995C93.1907 33.8973 93.0585 33.85 92.8881 33.8533L92.4264 33.8584L92.4215 34.3993L92.4316 35.0258L92.8829 35.0461ZM46.1168 40.3356L46.0918 38.0818L46.6135 38.0563L46.5834 40.5025H46.6236L48.1336 38.0666H48.6804L48.6554 40.2902L48.6752 41.3113H48.1535L48.1787 40.3356V38.8751H48.1385L46.6285 41.3113H46.0918L46.1168 40.3356ZM53.322 40.8815V41.9326L52.9359 41.9681L52.8607 41.3113H50.7085L50.6381 41.9326L50.2468 41.9681V40.8815H50.5128C50.6534 40.8041 50.7637 40.6862 50.8438 40.5279C50.9242 40.3696 50.9895 40.1454 51.0395 39.8557C51.0897 39.5659 51.1382 39.1583 51.1851 38.6325L51.2403 38.0666H52.9006L52.8808 40.2902L52.8906 40.8815H53.322ZM52.4042 40.3356L52.384 38.4657H51.6615L51.6365 38.7235C51.5798 39.3705 51.5079 39.8557 51.4207 40.1791C51.3338 40.4991 51.2102 40.7332 51.0495 40.8815H52.389L52.4042 40.3356ZM54.0246 40.3356L53.9992 38.0818L54.5209 38.0563L54.4911 40.5025H54.531L56.041 38.0666H56.5881L56.5628 40.2902L56.5829 41.3113H56.0612L56.0861 40.3356V38.8751H56.0462L54.5362 41.3113H53.9992L54.0246 40.3356ZM58.7646 39.6183C59.2029 39.7294 59.422 39.9886 59.422 40.3964C59.422 40.693 59.3098 40.927 59.0859 41.099C58.8618 41.2707 58.5574 41.3567 58.1729 41.3567C57.9988 41.3567 57.8333 41.3364 57.6761 41.2958C57.5192 41.2556 57.3853 41.1983 57.2747 41.1241L57.3701 40.6693L57.4152 40.6541C57.5192 40.7383 57.6361 40.8041 57.7665 40.8513C57.9003 40.8986 58.0341 40.9219 58.1679 40.9219C58.3853 40.9219 58.5608 40.8698 58.6946 40.7653C58.8317 40.6608 58.9002 40.5245 58.9002 40.3559C58.9002 40.2211 58.8585 40.11 58.7747 40.0225C58.6912 39.9347 58.5742 39.876 58.4236 39.8456H57.7465L57.7062 39.8051L57.7413 39.4462L58.3885 39.4563C58.4956 39.4093 58.5809 39.3366 58.6443 39.2391C58.7113 39.1413 58.7449 39.0335 58.7449 38.9157C58.7449 38.6259 58.5574 38.4809 58.1829 38.4809C57.922 38.4809 57.6526 38.5669 57.3752 38.7389L57.3149 38.7134L57.36 38.2535C57.6242 38.1053 57.9052 38.0312 58.203 38.0312C58.5339 38.0312 58.7949 38.1036 58.9856 38.2487C59.176 38.39 59.2714 38.5853 59.2714 38.8349C59.2714 39.0066 59.2263 39.1616 59.1362 39.2997C59.049 39.4378 58.9253 39.5441 58.7646 39.6183ZM62.5551 41.3113H62.0234L61.9483 40.9473L61.8079 40.4976L61.1256 40.4821L60.5084 40.4976L60.3579 40.9219L60.2778 41.3113H59.7609L60.9098 38.0666H61.5169L62.5551 41.3113ZM61.6775 40.073L61.2157 38.5769H61.1807L60.6541 40.073L61.1606 40.083L61.6775 40.073ZM63.1711 40.3356L63.146 38.0818L63.6677 38.0563L63.6376 40.5025H63.6779L65.188 38.0666H65.7346L65.7097 40.2902L65.7294 41.3113H65.2077L65.233 40.3356V38.8751H65.1928L63.6828 41.3113H63.146L63.1711 40.3356ZM65.1977 37.3489C65.1309 37.4937 65.024 37.6067 64.8768 37.6875C64.7295 37.7684 64.5574 37.8089 64.3599 37.8089C64.1627 37.8089 63.9939 37.7702 63.8534 37.6927C63.7129 37.6118 63.6093 37.4971 63.5422 37.3489L63.8031 37.167H63.8635C63.9034 37.2814 63.9637 37.3656 64.0438 37.4198C64.1244 37.4701 64.2328 37.4955 64.3699 37.4955C64.5105 37.4955 64.6192 37.4701 64.6961 37.4198C64.7765 37.3693 64.8384 37.2848 64.8816 37.167H64.942L65.1977 37.3489ZM69.271 40.2902L69.286 41.3113H68.7693L68.7944 40.3356L68.7892 39.8959L67.9666 39.8911L67.2142 39.8959L67.2091 40.2902L67.2291 41.3113H66.7175L66.7375 40.3356L66.7175 38.0666H67.234L67.2191 39.4614L68.0066 39.4717L68.7843 39.4614L68.7693 38.0666H69.296L69.271 40.2902ZM72.6623 41.3113H72.1305L72.0552 40.9473L71.9147 40.4976L71.2323 40.4821L70.6152 40.4976L70.4651 40.9219L70.3845 41.3113H69.868L71.0166 38.0666H71.6237L72.6623 41.3113ZM71.7843 40.073L71.3229 38.5769H71.2875L70.7609 40.073L71.2674 40.083L71.7843 40.073Z"
      fill="white" />
  </g>
  <rect x="0.5" y="0.5" width="94" height="41" stroke="black" />
  <defs>
    <clipPath id="clip0_3107_472">
      <rect width="95" height="42" fill="white" />
    </clipPath>
  </defs>
</svg>
  